<svg class="marks" width="1016" height="306" viewBox="0 0 1016 306" version="1.1" xmlns="http://www.w3.org/2000/svg" xmlns:xlink="http://www.w3.org/1999/xlink"><rect width="1016" height="306" style="fill: white;"></rect><defs><clipPath id="clip1"><rect x="0" y="0" width="963" height="100"></rect></clipPath><clipPath id="clip2"><rect x="0" y="0" width="963" height="100"></rect></clipPath></defs><g transform="translate(46,10)"><g class="mark-group role-frame root"><g transform="translate(0,0)"><path class="background" d="M0,0h963v0h-963Z" style="fill: none;"></path><g><g class="mark-group role-scope concat_0_group"><g transform="translate(0,0)"><path class="background" d="M0.5,0.5h963v100h-963Z" style="fill: none; stroke: #ddd;"></path><g><g class="mark-group role-axis"><g transform="translate(0.5,0.5)"><path class="background" d="M0,0h0v0h0Z" style="pointer-events: none; fill: none;"></path><g><g class="mark-rule role-axis-grid" style="pointer-events: none;"><line transform="translate(0,100)" x2="963" y2="0" style="fill: none; stroke: #ddd; stroke-width: 1; opacity: 1;"></line><line transform="translate(0,69)" x2="963" y2="0" style="fill: none; stroke: #ddd; stroke-width: 1; opacity: 1;"></line><line transform="translate(0,38)" x2="963" y2="0" style="fill: none; stroke: #ddd; stroke-width: 1; opacity: 1;"></line><line transform="translate(0,6)" x2="963" y2="0" style="fill: none; stroke: #ddd; stroke-width: 1; opacity: 1;"></line></g></g></g></g><g class="mark-group role-axis"><g transform="translate(0.5,100.5)"><path class="background" d="M0,0h0v0h0Z" style="pointer-events: none; fill: none;"></path><g><g class="mark-rule role-axis-tick" style="pointer-events: none;"><line transform="translate(0,0)" x2="0" y2="5" style="fill: none; stroke: #888; stroke-width: 1; opacity: 1;"></line><line transform="translate(44,0)" x2="0" y2="5" style="fill: none; stroke: #888; stroke-width: 1; opacity: 1;"></line><line transform="translate(88,0)" x2="0" y2="5" style="fill: none; stroke: #888; stroke-width: 1; opacity: 1;"></line><line transform="translate(131,0)" x2="0" y2="5" style="fill: none; stroke: #888; stroke-width: 1; opacity: 1;"></line><line transform="translate(175,0)" x2="0" y2="5" style="fill: none; stroke: #888; stroke-width: 1; opacity: 1;"></line><line transform="translate(219,0)" x2="0" y2="5" style="fill: none; stroke: #888; stroke-width: 1; opacity: 1;"></line><line transform="translate(263,0)" x2="0" y2="5" style="fill: none; stroke: #888; stroke-width: 1; opacity: 1;"></line><line transform="translate(306,0)" x2="0" y2="5" style="fill: none; stroke: #888; stroke-width: 1; opacity: 1;"></line><line transform="translate(350,0)" x2="0" y2="5" style="fill: none; stroke: #888; stroke-width: 1; opacity: 1;"></line><line transform="translate(394,0)" x2="0" y2="5" style="fill: none; stroke: #888; stroke-width: 1; opacity: 1;"></line><line transform="translate(438,0)" x2="0" y2="5" style="fill: none; stroke: #888; stroke-width: 1; opacity: 1;"></line><line transform="translate(482,0)" x2="0" y2="5" style="fill: none; stroke: #888; stroke-width: 1; opacity: 1;"></line><line transform="translate(525,0)" x2="0" y2="5" style="fill: none; stroke: #888; stroke-width: 1; opacity: 1;"></line><line transform="translate(569,0)" x2="0" y2="5" style="fill: none; stroke: #888; stroke-width: 1; opacity: 1;"></line><line transform="translate(613,0)" x2="0" y2="5" style="fill: none; stroke: #888; stroke-width: 1; opacity: 1;"></line><line transform="translate(657,0)" x2="0" y2="5" style="fill: none; stroke: #888; stroke-width: 1; opacity: 1;"></line><line transform="translate(700,0)" x2="0" y2="5" style="fill: none; stroke: #888; stroke-width: 1; opacity: 1;"></line><line transform="translate(744,0)" x2="0" y2="5" style="fill: none; stroke: #888; stroke-width: 1; opacity: 1;"></line><line transform="translate(788,0)" x2="0" y2="5" style="fill: none; stroke: #888; stroke-width: 1; opacity: 1;"></line><line transform="translate(832,0)" x2="0" y2="5" style="fill: none; stroke: #888; stroke-width: 1; opacity: 1;"></line><line transform="translate(875,0)" x2="0" y2="5" style="fill: none; stroke: #888; stroke-width: 1; opacity: 1;"></line><line transform="translate(919,0)" x2="0" y2="5" style="fill: none; stroke: #888; stroke-width: 1; opacity: 1;"></line><line transform="translate(963,0)" x2="0" y2="5" style="fill: none; stroke: #888; stroke-width: 1; opacity: 1;"></line></g><g class="mark-text role-axis-label" style="pointer-events: none;"><text text-anchor="start" transform="translate(0,15)" style="font-family: sans-serif; font-size: 10px; fill: #000; opacity: 1;">1.0</text><text text-anchor="middle" transform="translate(43.77272727272727,15)" style="font-family: sans-serif; font-size: 10px; fill: #000; opacity: 1;">2.0</text><text text-anchor="middle" transform="translate(87.54545454545455,15)" style="font-family: sans-serif; font-size: 10px; fill: #000; opacity: 1;">3.0</text><text text-anchor="middle" transform="translate(131.3181818181818,15)" style="font-family: sans-serif; font-size: 10px; fill: #000; opacity: 1;">4.0</text><text text-anchor="middle" transform="translate(175.0909090909091,15)" style="font-family: sans-serif; font-size: 10px; fill: #000; opacity: 1;">5.0</text><text text-anchor="middle" transform="translate(218.86363636363635,15)" style="font-family: sans-serif; font-size: 10px; fill: #000; opacity: 1;">6.0</text><text text-anchor="middle" transform="translate(262.6363636363636,15)" style="font-family: sans-serif; font-size: 10px; fill: #000; opacity: 1;">7.0</text><text text-anchor="middle" transform="translate(306.4090909090909,15)" style="font-family: sans-serif; font-size: 10px; fill: #000; opacity: 1;">8.0</text><text text-anchor="middle" transform="translate(350.1818181818182,15)" style="font-family: sans-serif; font-size: 10px; fill: #000; opacity: 1;">9.0</text><text text-anchor="middle" transform="translate(393.9545454545455,15)" style="font-family: sans-serif; font-size: 10px; fill: #000; opacity: 1;">10.0</text><text text-anchor="middle" transform="translate(437.7272727272727,15)" style="font-family: sans-serif; font-size: 10px; fill: #000; opacity: 1;">11.0</text><text text-anchor="middle" transform="translate(481.5,15)" style="font-family: sans-serif; font-size: 10px; fill: #000; opacity: 1;">12.0</text><text text-anchor="middle" transform="translate(525.2727272727273,15)" style="font-family: sans-serif; font-size: 10px; fill: #000; opacity: 1;">13.0</text><text text-anchor="middle" transform="translate(569.0454545454546,15)" style="font-family: sans-serif; font-size: 10px; fill: #000; opacity: 1;">14.0</text><text text-anchor="middle" transform="translate(612.8181818181818,15)" style="font-family: sans-serif; font-size: 10px; fill: #000; opacity: 1;">15.0</text><text text-anchor="middle" transform="translate(656.590909090909,15)" style="font-family: sans-serif; font-size: 10px; fill: #000; opacity: 1;">16.0</text><text text-anchor="middle" transform="translate(700.3636363636364,15)" style="font-family: sans-serif; font-size: 10px; fill: #000; opacity: 1;">17.0</text><text text-anchor="middle" transform="translate(744.1363636363636,15)" style="font-family: sans-serif; font-size: 10px; fill: #000; opacity: 1;">18.0</text><text text-anchor="middle" transform="translate(787.909090909091,15)" style="font-family: sans-serif; font-size: 10px; fill: #000; opacity: 1;">19.0</text><text text-anchor="middle" transform="translate(831.6818181818182,15)" style="font-family: sans-serif; font-size: 10px; fill: #000; opacity: 1;">20.0</text><text text-anchor="middle" transform="translate(875.4545454545454,15)" style="font-family: sans-serif; font-size: 10px; fill: #000; opacity: 1;">21.0</text><text text-anchor="middle" transform="translate(919.2272727272727,15)" style="font-family: sans-serif; font-size: 10px; fill: #000; opacity: 1;">22.0</text><text text-anchor="end" transform="translate(963,15)" style="font-family: sans-serif; font-size: 10px; fill: #000; opacity: 1;">23.0</text></g><g class="mark-rule role-axis-domain" style="pointer-events: none;"><line transform="translate(0,0)" x2="963" y2="0" style="fill: none; stroke: #888; stroke-width: 1; opacity: 1;"></line></g><g class="mark-text role-axis-title" style="pointer-events: none;"><text text-anchor="middle" transform="translate(481.5,30)" style="font-family: sans-serif; font-size: 11px; font-weight: bold; fill: #000; opacity: 1;">time (binned)</text></g></g></g></g><g class="mark-group role-axis"><g transform="translate(0.5,0.5)"><path class="background" d="M0,0h0v0h0Z" style="pointer-events: none; fill: none;"></path><g><g class="mark-rule role-axis-tick" style="pointer-events: none;"><line transform="translate(0,100)" x2="-5" y2="0" style="fill: none; stroke: #888; stroke-width: 1; opacity: 1;"></line><line transform="translate(0,69)" x2="-5" y2="0" style="fill: none; stroke: #888; stroke-width: 1; opacity: 1;"></line><line transform="translate(0,38)" x2="-5" y2="0" style="fill: none; stroke: #888; stroke-width: 1; opacity: 1;"></line><line transform="translate(0,6)" x2="-5" y2="0" style="fill: none; stroke: #888; stroke-width: 1; opacity: 1;"></line></g><g class="mark-text role-axis-label" style="pointer-events: none;"><text text-anchor="end" transform="translate(-7,103)" style="font-family: sans-serif; font-size: 10px; fill: #000; opacity: 1;">0</text><text text-anchor="end" transform="translate(-7,71.75)" style="font-family: sans-serif; font-size: 10px; fill: #000; opacity: 1;">50</text><text text-anchor="end" transform="translate(-7,40.5)" style="font-family: sans-serif; font-size: 10px; fill: #000; opacity: 1;">100</text><text text-anchor="end" transform="translate(-7,9.25)" style="font-family: sans-serif; font-size: 10px; fill: #000; opacity: 1;">150</text></g><g class="mark-rule role-axis-domain" style="pointer-events: none;"><line transform="translate(0,100)" x2="0" y2="-100" style="fill: none; stroke: #888; stroke-width: 1; opacity: 1;"></line></g><g class="mark-text role-axis-title" style="pointer-events: none;"><text text-anchor="middle" transform="translate(-29,50) rotate(-90) translate(0,-2)" style="font-family: sans-serif; font-size: 11px; font-weight: bold; fill: #000; opacity: 1;">Count of Records</text></g></g></g></g><g class="mark-rect role-mark brush_brush_bg" clip-path="url(#clip1)"><path d="M0,0h0v0h0Z" style="fill: #333; fill-opacity: 0.125;"></path></g><g class="mark-rect role-mark concat_0_marks"><path d="M876.4545454545454,54.375h42.772727272727366v45.625h-42.772727272727366Z" style="fill: #4c78a8;"></path><path d="M832.6818181818182,28.75h42.77272727272714v71.25h-42.77272727272714Z" style="fill: #4c78a8;"></path><path d="M570.0454545454546,33.75h42.77272727272714v66.25h-42.77272727272714Z" style="fill: #4c78a8;"></path><path d="M482.5,8.125h42.77272727272725v91.875h-42.77272727272725Z" style="fill: #4c78a8;"></path><path d="M351.1818181818182,21.875h42.77272727272731v78.125h-42.77272727272731Z" style="fill: #4c78a8;"></path><path d="M263.6363636363636,23.125h42.77272727272725v76.875h-42.77272727272725Z" style="fill: #4c78a8;"></path><path d="M438.7272727272727,14.375h42.77272727272731v85.625h-42.77272727272731Z" style="fill: #4c78a8;"></path><path d="M219.86363636363635,25.625h42.77272727272728v74.375h-42.77272727272728Z" style="fill: #4c78a8;"></path><path d="M613.8181818181818,21.875h42.77272727272725v78.125h-42.77272727272725Z" style="fill: #4c78a8;"></path><path d="M307.4090909090909,8.75h42.77272727272731v91.25h-42.77272727272731Z" style="fill: #4c78a8;"></path><path d="M788.909090909091,23.125h42.77272727272725v76.875h-42.77272727272725Z" style="fill: #4c78a8;"></path><path d="M745.1363636363636,28.125h42.772727272727366v71.875h-42.772727272727366Z" style="fill: #4c78a8;"></path><path d="M526.2727272727273,26.875h42.772727272727366v73.125h-42.772727272727366Z" style="fill: #4c78a8;"></path><path d="M394.9545454545455,20.625h42.772727272727195v79.375h-42.772727272727195Z" style="fill: #4c78a8;"></path><path d="M701.3636363636364,14.375h42.77272727272725v85.625h-42.77272727272725Z" style="fill: #4c78a8;"></path><path d="M657.590909090909,23.125h42.772727272727366v76.875h-42.772727272727366Z" style="fill: #4c78a8;"></path><path d="M920.2272727272727,75h42.77272727272725v25h-42.77272727272725Z" style="fill: #4c78a8;"></path><path d="M176.0909090909091,98.75h42.77272727272725v1.25h-42.77272727272725Z" style="fill: #4c78a8;"></path><path d="M1,99.375h42.77272727272727v0.625h-42.77272727272727Z" style="fill: #4c78a8;"></path></g><g class="mark-rect role-mark brush_brush" clip-path="url(#clip2)"><path d="M0,0h0v0h0Z" style="fill: none;"></path></g></g></g></g><g class="mark-group role-scope concat_1_group"><g transform="translate(0,158)"><path class="background" d="M0.5,0.5h963v100h-963Z" style="fill: none; stroke: #ddd;"></path><g><g class="mark-group role-axis"><g transform="translate(0.5,0.5)"><path class="background" d="M0,0h0v0h0Z" style="pointer-events: none; fill: none;"></path><g><g class="mark-rule role-axis-grid" style="pointer-events: none;"><line transform="translate(0,100)" x2="963" y2="0" style="fill: none; stroke: #ddd; stroke-width: 1; opacity: 1;"></line><line transform="translate(0,69)" x2="963" y2="0" style="fill: none; stroke: #ddd; stroke-width: 1; opacity: 1;"></line><line transform="translate(0,38)" x2="963" y2="0" style="fill: none; stroke: #ddd; stroke-width: 1; opacity: 1;"></line><line transform="translate(0,6)" x2="963" y2="0" style="fill: none; stroke: #ddd; stroke-width: 1; opacity: 1;"></line></g></g></g></g><g class="mark-group role-axis"><g transform="translate(0.5,100.5)"><path class="background" d="M0,0h0v0h0Z" style="pointer-events: none; fill: none;"></path><g><g class="mark-rule role-axis-tick" style="pointer-events: none;"><line transform="translate(0,0)" x2="0" y2="5" style="fill: none; stroke: #888; stroke-width: 1; opacity: 1;"></line><line transform="translate(44,0)" x2="0" y2="5" style="fill: none; stroke: #888; stroke-width: 1; opacity: 1;"></line><line transform="translate(88,0)" x2="0" y2="5" style="fill: none; stroke: #888; stroke-width: 1; opacity: 1;"></line><line transform="translate(131,0)" x2="0" y2="5" style="fill: none; stroke: #888; stroke-width: 1; opacity: 1;"></line><line transform="translate(175,0)" x2="0" y2="5" style="fill: none; stroke: #888; stroke-width: 1; opacity: 1;"></line><line transform="translate(219,0)" x2="0" y2="5" style="fill: none; stroke: #888; stroke-width: 1; opacity: 1;"></line><line transform="translate(263,0)" x2="0" y2="5" style="fill: none; stroke: #888; stroke-width: 1; opacity: 1;"></line><line transform="translate(306,0)" x2="0" y2="5" style="fill: none; stroke: #888; stroke-width: 1; opacity: 1;"></line><line transform="translate(350,0)" x2="0" y2="5" style="fill: none; stroke: #888; stroke-width: 1; opacity: 1;"></line><line transform="translate(394,0)" x2="0" y2="5" style="fill: none; stroke: #888; stroke-width: 1; opacity: 1;"></line><line transform="translate(438,0)" x2="0" y2="5" style="fill: none; stroke: #888; stroke-width: 1; opacity: 1;"></line><line transform="translate(482,0)" x2="0" y2="5" style="fill: none; stroke: #888; stroke-width: 1; opacity: 1;"></line><line transform="translate(525,0)" x2="0" y2="5" style="fill: none; stroke: #888; stroke-width: 1; opacity: 1;"></line><line transform="translate(569,0)" x2="0" y2="5" style="fill: none; stroke: #888; stroke-width: 1; opacity: 1;"></line><line transform="translate(613,0)" x2="0" y2="5" style="fill: none; stroke: #888; stroke-width: 1; opacity: 1;"></line><line transform="translate(657,0)" x2="0" y2="5" style="fill: none; stroke: #888; stroke-width: 1; opacity: 1;"></line><line transform="translate(700,0)" x2="0" y2="5" style="fill: none; stroke: #888; stroke-width: 1; opacity: 1;"></line><line transform="translate(744,0)" x2="0" y2="5" style="fill: none; stroke: #888; stroke-width: 1; opacity: 1;"></line><line transform="translate(788,0)" x2="0" y2="5" style="fill: none; stroke: #888; stroke-width: 1; opacity: 1;"></line><line transform="translate(832,0)" x2="0" y2="5" style="fill: none; stroke: #888; stroke-width: 1; opacity: 1;"></line><line transform="translate(875,0)" x2="0" y2="5" style="fill: none; stroke: #888; stroke-width: 1; opacity: 1;"></line><line transform="translate(919,0)" x2="0" y2="5" style="fill: none; stroke: #888; stroke-width: 1; opacity: 1;"></line><line transform="translate(963,0)" x2="0" y2="5" style="fill: none; stroke: #888; stroke-width: 1; opacity: 1;"></line></g><g class="mark-text role-axis-label" style="pointer-events: none;"><text text-anchor="start" transform="translate(0,15)" style="font-family: sans-serif; font-size: 10px; fill: #000; opacity: 1;">1.0</text><text text-anchor="middle" transform="translate(43.77272727272727,15)" style="font-family: sans-serif; font-size: 10px; fill: #000; opacity: 1;">2.0</text><text text-anchor="middle" transform="translate(87.54545454545455,15)" style="font-family: sans-serif; font-size: 10px; fill: #000; opacity: 1;">3.0</text><text text-anchor="middle" transform="translate(131.3181818181818,15)" style="font-family: sans-serif; font-size: 10px; fill: #000; opacity: 1;">4.0</text><text text-anchor="middle" transform="translate(175.0909090909091,15)" style="font-family: sans-serif; font-size: 10px; fill: #000; opacity: 1;">5.0</text><text text-anchor="middle" transform="translate(218.86363636363635,15)" style="font-family: sans-serif; font-size: 10px; fill: #000; opacity: 1;">6.0</text><text text-anchor="middle" transform="translate(262.6363636363636,15)" style="font-family: sans-serif; font-size: 10px; fill: #000; opacity: 1;">7.0</text><text text-anchor="middle" transform="translate(306.4090909090909,15)" style="font-family: sans-serif; font-size: 10px; fill: #000; opacity: 1;">8.0</text><text text-anchor="middle" transform="translate(350.1818181818182,15)" style="font-family: sans-serif; font-size: 10px; fill: #000; opacity: 1;">9.0</text><text text-anchor="middle" transform="translate(393.9545454545455,15)" style="font-family: sans-serif; font-size: 10px; fill: #000; opacity: 1;">10.0</text><text text-anchor="middle" transform="translate(437.7272727272727,15)" style="font-family: sans-serif; font-size: 10px; fill: #000; opacity: 1;">11.0</text><text text-anchor="middle" transform="translate(481.5,15)" style="font-family: sans-serif; font-size: 10px; fill: #000; opacity: 1;">12.0</text><text text-anchor="middle" transform="translate(525.2727272727273,15)" style="font-family: sans-serif; font-size: 10px; fill: #000; opacity: 1;">13.0</text><text text-anchor="middle" transform="translate(569.0454545454546,15)" style="font-family: sans-serif; font-size: 10px; fill: #000; opacity: 1;">14.0</text><text text-anchor="middle" transform="translate(612.8181818181818,15)" style="font-family: sans-serif; font-size: 10px; fill: #000; opacity: 1;">15.0</text><text text-anchor="middle" transform="translate(656.590909090909,15)" style="font-family: sans-serif; font-size: 10px; fill: #000; opacity: 1;">16.0</text><text text-anchor="middle" transform="translate(700.3636363636364,15)" style="font-family: sans-serif; font-size: 10px; fill: #000; opacity: 1;">17.0</text><text text-anchor="middle" transform="translate(744.1363636363636,15)" style="font-family: sans-serif; font-size: 10px; fill: #000; opacity: 1;">18.0</text><text text-anchor="middle" transform="translate(787.909090909091,15)" style="font-family: sans-serif; font-size: 10px; fill: #000; opacity: 1;">19.0</text><text text-anchor="middle" transform="translate(831.6818181818182,15)" style="font-family: sans-serif; font-size: 10px; fill: #000; opacity: 1;">20.0</text><text text-anchor="middle" transform="translate(875.4545454545454,15)" style="font-family: sans-serif; font-size: 10px; fill: #000; opacity: 1;">21.0</text><text text-anchor="middle" transform="translate(919.2272727272727,15)" style="font-family: sans-serif; font-size: 10px; fill: #000; opacity: 1;">22.0</text><text text-anchor="end" transform="translate(963,15)" style="font-family: sans-serif; font-size: 10px; fill: #000; opacity: 1;">23.0</text></g><g class="mark-rule role-axis-domain" style="pointer-events: none;"><line transform="translate(0,0)" x2="963" y2="0" style="fill: none; stroke: #888; stroke-width: 1; opacity: 1;"></line></g><g class="mark-text role-axis-title" style="pointer-events: none;"><text text-anchor="middle" transform="translate(481.5,30)" style="font-family: sans-serif; font-size: 11px; font-weight: bold; fill: #000; opacity: 1;">time (binned)</text></g></g></g></g><g class="mark-group role-axis"><g transform="translate(0.5,0.5)"><path class="background" d="M0,0h0v0h0Z" style="pointer-events: none; fill: none;"></path><g><g class="mark-rule role-axis-tick" style="pointer-events: none;"><line transform="translate(0,100)" x2="-5" y2="0" style="fill: none; stroke: #888; stroke-width: 1; opacity: 1;"></line><line transform="translate(0,69)" x2="-5" y2="0" style="fill: none; stroke: #888; stroke-width: 1; opacity: 1;"></line><line transform="translate(0,38)" x2="-5" y2="0" style="fill: none; stroke: #888; stroke-width: 1; opacity: 1;"></line><line transform="translate(0,6)" x2="-5" y2="0" style="fill: none; stroke: #888; stroke-width: 1; opacity: 1;"></line></g><g class="mark-text role-axis-label" style="pointer-events: none;"><text text-anchor="end" transform="translate(-7,103)" style="font-family: sans-serif; font-size: 10px; fill: #000; opacity: 1;">0</text><text text-anchor="end" transform="translate(-7,71.75)" style="font-family: sans-serif; font-size: 10px; fill: #000; opacity: 1;">50</text><text text-anchor="end" transform="translate(-7,40.5)" style="font-family: sans-serif; font-size: 10px; fill: #000; opacity: 1;">100</text><text text-anchor="end" transform="translate(-7,9.25)" style="font-family: sans-serif; font-size: 10px; fill: #000; opacity: 1;">150</text></g><g class="mark-rule role-axis-domain" style="pointer-events: none;"><line transform="translate(0,100)" x2="0" y2="-100" style="fill: none; stroke: #888; stroke-width: 1; opacity: 1;"></line></g><g class="mark-text role-axis-title" style="pointer-events: none;"><text text-anchor="middle" transform="translate(-29,50) rotate(-90) translate(0,-2)" style="font-family: sans-serif; font-size: 11px; font-weight: bold; fill: #000; opacity: 1;">Count of Records</text></g></g></g></g><g class="mark-rect role-mark concat_1_marks"><path d="M876.4545454545454,54.375h42.772727272727366v45.625h-42.772727272727366Z" style="fill: #4c78a8;"></path><path d="M832.6818181818182,28.75h42.77272727272714v71.25h-42.77272727272714Z" style="fill: #4c78a8;"></path><path d="M570.0454545454546,33.75h42.77272727272714v66.25h-42.77272727272714Z" style="fill: #4c78a8;"></path><path d="M482.5,8.125h42.77272727272725v91.875h-42.77272727272725Z" style="fill: #4c78a8;"></path><path d="M351.1818181818182,21.875h42.77272727272731v78.125h-42.77272727272731Z" style="fill: #4c78a8;"></path><path d="M263.6363636363636,23.125h42.77272727272725v76.875h-42.77272727272725Z" style="fill: #4c78a8;"></path><path d="M438.7272727272727,14.375h42.77272727272731v85.625h-42.77272727272731Z" style="fill: #4c78a8;"></path><path d="M219.86363636363635,25.625h42.77272727272728v74.375h-42.77272727272728Z" style="fill: #4c78a8;"></path><path d="M613.8181818181818,21.875h42.77272727272725v78.125h-42.77272727272725Z" style="fill: #4c78a8;"></path><path d="M307.4090909090909,8.75h42.77272727272731v91.25h-42.77272727272731Z" style="fill: #4c78a8;"></path><path d="M788.909090909091,23.125h42.77272727272725v76.875h-42.77272727272725Z" style="fill: #4c78a8;"></path><path d="M745.1363636363636,28.125h42.772727272727366v71.875h-42.772727272727366Z" style="fill: #4c78a8;"></path><path d="M526.2727272727273,26.875h42.772727272727366v73.125h-42.772727272727366Z" style="fill: #4c78a8;"></path><path d="M394.9545454545455,20.625h42.772727272727195v79.375h-42.772727272727195Z" style="fill: #4c78a8;"></path><path d="M701.3636363636364,14.375h42.77272727272725v85.625h-42.77272727272725Z" style="fill: #4c78a8;"></path><path d="M657.590909090909,23.125h42.772727272727366v76.875h-42.772727272727366Z" style="fill: #4c78a8;"></path><path d="M920.2272727272727,75h42.77272727272725v25h-42.77272727272725Z" style="fill: #4c78a8;"></path><path d="M176.0909090909091,98.75h42.77272727272725v1.25h-42.77272727272725Z" style="fill: #4c78a8;"></path><path d="M1,99.375h42.77272727272727v0.625h-42.77272727272727Z" style="fill: #4c78a8;"></path></g></g></g></g></g></g></g></g></svg>