<svg class="marks" width="280" height="247" viewBox="0 0 280 247" version="1.1" xmlns="http://www.w3.org/2000/svg" xmlns:xlink="http://www.w3.org/1999/xlink"><rect width="280" height="247" style="fill: white;"></rect><defs><clipPath id="clip1"><rect x="0" y="0" width="200" height="200"></rect></clipPath><clipPath id="clip2"><rect x="0" y="0" width="200" height="200"></rect></clipPath></defs><g transform="translate(75,10)"><g class="mark-group role-frame root"><g transform="translate(0,0)"><path class="background" d="M0.5,0.5h200v200h-200Z" style="fill: none; stroke: #ddd;"></path><g><g class="mark-group role-axis"><g transform="translate(0.5,200.5)"><path class="background" d="M0,0h0v0h0Z" style="pointer-events: none; fill: none;"></path><g><g class="mark-rule role-axis-grid" style="pointer-events: none;"><line transform="translate(0,-200)" x2="0" y2="200" style="fill: none; stroke: #ddd; stroke-width: 1; opacity: 1;"></line><line transform="translate(40,-200)" x2="0" y2="200" style="fill: none; stroke: #ddd; stroke-width: 1; opacity: 1;"></line><line transform="translate(79,-200)" x2="0" y2="200" style="fill: none; stroke: #ddd; stroke-width: 1; opacity: 1;"></line><line transform="translate(119,-200)" x2="0" y2="200" style="fill: none; stroke: #ddd; stroke-width: 1; opacity: 1;"></line><line transform="translate(159,-200)" x2="0" y2="200" style="fill: none; stroke: #ddd; stroke-width: 1; opacity: 1;"></line><line transform="translate(198,-200)" x2="0" y2="200" style="fill: none; stroke: #ddd; stroke-width: 1; opacity: 1;"></line></g></g></g></g><g class="mark-group role-axis"><g transform="translate(0.5,0.5)"><path class="background" d="M0,0h0v0h0Z" style="pointer-events: none; fill: none;"></path><g><g class="mark-rule role-axis-grid" style="pointer-events: none;"><line transform="translate(0,200)" x2="200" y2="0" style="fill: none; stroke: #ddd; stroke-width: 1; opacity: 1;"></line><line transform="translate(0,160)" x2="200" y2="0" style="fill: none; stroke: #ddd; stroke-width: 1; opacity: 1;"></line><line transform="translate(0,120)" x2="200" y2="0" style="fill: none; stroke: #ddd; stroke-width: 1; opacity: 1;"></line><line transform="translate(0,80)" x2="200" y2="0" style="fill: none; stroke: #ddd; stroke-width: 1; opacity: 1;"></line><line transform="translate(0,40)" x2="200" y2="0" style="fill: none; stroke: #ddd; stroke-width: 1; opacity: 1;"></line><line transform="translate(0,0)" x2="200" y2="0" style="fill: none; stroke: #ddd; stroke-width: 1; opacity: 1;"></line></g></g></g></g><g class="mark-group role-axis"><g transform="translate(0.5,200.5)"><path class="background" d="M0,0h0v0h0Z" style="pointer-events: none; fill: none;"></path><g><g class="mark-rule role-axis-tick" style="pointer-events: none;"><line transform="translate(0,0)" x2="0" y2="5" style="fill: none; stroke: #888; stroke-width: 1; opacity: 1;"></line><line transform="translate(40,0)" x2="0" y2="5" style="fill: none; stroke: #888; stroke-width: 1; opacity: 1;"></line><line transform="translate(79,0)" x2="0" y2="5" style="fill: none; stroke: #888; stroke-width: 1; opacity: 1;"></line><line transform="translate(119,0)" x2="0" y2="5" style="fill: none; stroke: #888; stroke-width: 1; opacity: 1;"></line><line transform="translate(159,0)" x2="0" y2="5" style="fill: none; stroke: #888; stroke-width: 1; opacity: 1;"></line><line transform="translate(198,0)" x2="0" y2="5" style="fill: none; stroke: #888; stroke-width: 1; opacity: 1;"></line></g><g class="mark-text role-axis-label" style="pointer-events: none;"><text text-anchor="start" transform="translate(0,15)" style="font-family: sans-serif; font-size: 10px; fill: #000; opacity: 1;">Jan 2000</text><text text-anchor="middle" transform="translate(39.68512486427796,15)" style="font-family: sans-serif; font-size: 10px; fill: #000; opacity: 0;">Jan 2002</text><text text-anchor="middle" transform="translate(79.31596091205212,15)" style="font-family: sans-serif; font-size: 10px; fill: #000; opacity: 1;">Jan 2004</text><text text-anchor="middle" transform="translate(119.00108577633009,15)" style="font-family: sans-serif; font-size: 10px; fill: #000; opacity: 0;">Jan 2006</text><text text-anchor="middle" transform="translate(158.63192182410424,15)" style="font-family: sans-serif; font-size: 10px; fill: #000; opacity: 1;">Jan 2008</text><text text-anchor="middle" transform="translate(198.3170466883822,15)" style="font-family: sans-serif; font-size: 10px; fill: #000; opacity: 0;">Jan 2010</text></g><g class="mark-rule role-axis-domain" style="pointer-events: none;"><line transform="translate(0,0)" x2="200" y2="0" style="fill: none; stroke: #888; stroke-width: 1; opacity: 1;"></line></g><g class="mark-text role-axis-title" style="pointer-events: none;"><text text-anchor="middle" transform="translate(100,30)" style="font-family: sans-serif; font-size: 11px; font-weight: bold; fill: #000; opacity: 1;">date (year-month)</text></g></g></g></g><g class="mark-group role-axis"><g transform="translate(0.5,0.5)"><path class="background" d="M0,0h0v0h0Z" style="pointer-events: none; fill: none;"></path><g><g class="mark-rule role-axis-tick" style="pointer-events: none;"><line transform="translate(0,200)" x2="-5" y2="0" style="fill: none; stroke: #888; stroke-width: 1; opacity: 1;"></line><line transform="translate(0,160)" x2="-5" y2="0" style="fill: none; stroke: #888; stroke-width: 1; opacity: 1;"></line><line transform="translate(0,120)" x2="-5" y2="0" style="fill: none; stroke: #888; stroke-width: 1; opacity: 1;"></line><line transform="translate(0,80)" x2="-5" y2="0" style="fill: none; stroke: #888; stroke-width: 1; opacity: 1;"></line><line transform="translate(0,40)" x2="-5" y2="0" style="fill: none; stroke: #888; stroke-width: 1; opacity: 1;"></line><line transform="translate(0,0)" x2="-5" y2="0" style="fill: none; stroke: #888; stroke-width: 1; opacity: 1;"></line></g><g class="mark-text role-axis-label" style="pointer-events: none;"><text text-anchor="end" transform="translate(-7,203)" style="font-family: sans-serif; font-size: 10px; fill: #000; opacity: 1;">0</text><text text-anchor="end" transform="translate(-7,163)" style="font-family: sans-serif; font-size: 10px; fill: #000; opacity: 1;">200,000</text><text text-anchor="end" transform="translate(-7,123)" style="font-family: sans-serif; font-size: 10px; fill: #000; opacity: 1;">400,000</text><text text-anchor="end" transform="translate(-7,83)" style="font-family: sans-serif; font-size: 10px; fill: #000; opacity: 1;">600,000</text><text text-anchor="end" transform="translate(-7,43)" style="font-family: sans-serif; font-size: 10px; fill: #000; opacity: 1;">800,000</text><text text-anchor="end" transform="translate(-7,3)" style="font-family: sans-serif; font-size: 10px; fill: #000; opacity: 1;">1,000,000</text></g><g class="mark-rule role-axis-domain" style="pointer-events: none;"><line transform="translate(0,200)" x2="0" y2="-200" style="fill: none; stroke: #888; stroke-width: 1; opacity: 1;"></line></g><g class="mark-text role-axis-title" style="pointer-events: none;"><text text-anchor="middle" transform="translate(-59,100) rotate(-90) translate(0,-2)" style="font-family: sans-serif; font-size: 11px; font-weight: bold; fill: #000; opacity: 1;">Sum of count</text></g></g></g></g><g class="mark-rect role-mark brush_brush_bg" clip-path="url(#clip1)"><path d="M0,0h0v0h0Z" style="fill: #333; fill-opacity: 0.125;"></path></g><g class="mark-area role-mark layer_0_marks"><path style="fill: #4c78a8;"></path></g><g class="mark-area role-mark layer_1_marks"><path d="M0,198.8052L1.6829533116178068,198.816L3.257328990228013,198.8636L4.94028230184582,199.031L6.566684762938834,198.9984L8.24963807455664,198.9368L9.878302569670648,198.9184L11.561255881288455,198.9328L13.244209192906261,199.005L14.872873688020269,199.0428L16.558089033659066,199.0092L18.18675352877307,199.0222L19.86970684039088,198.7474L21.552660152008688,198.7622L23.07274701411509,198.7664L24.7557003257329,198.8816L26.38210278682591,198.9112L28.06505609844372,198.7774L29.693720593557728,198.7562L31.376673905175533,198.7L33.059627216793345,198.734L34.68829171190735,198.652L36.37350705754614,198.5682L38.00217155266015,198.524L39.68512486427796,198.2736L41.36807817589577,198.3194L42.88816503800217,198.3408L44.57111834961998,198.4442L46.197520810712994,198.5042L47.8804741223308,198.4122L49.50913861744481,198.4164L51.19209192906261,198.4774L52.87504524068042,198.5416L54.50370973579442,198.5326L56.188925081433226,198.4754L57.817589576547235,198.4408L59.50054288816504,198.2254L61.18349619978285,198.2442L62.70358306188925,198.3088L64.38653637350706,198.4152L66.01293883460008,198.4236L67.69589214621789,198.266L69.32455664133188,198.3256L71.00750995294969,198.3756L72.6904632645675,198.4402L74.3191277596815,198.481L76.0043431053203,198.4576L77.63300760043431,198.5184L79.31596091205212,198.2892L80.99891422366993,198.3566L82.57328990228014,198.3448L84.25624321389795,198.5502L85.88264567499095,198.5824L87.56559898660876,198.4684L89.19426348172277,198.494L90.87721679334058,198.5646L92.56017010495839,198.6216L94.18883460007238,198.6284L95.87404994571118,198.5982L97.50271444082519,198.5898L99.185667752443,198.4194L100.8686210640608,198.415L102.38870792616721,198.527L104.07166123778502,198.6692L105.69806369887804,198.6838L107.38101701049582,198.6172L109.00968150560983,198.6086L110.69263481722764,198.6704L112.37558812884545,198.6636L114.00425262395946,198.7256L115.68946796959827,198.6716L117.31813246471228,198.7084L119.00108577633009,198.5852L120.6840390879479,198.5794L122.2041259500543,198.6584L123.88707926167211,198.7432L125.5134817227651,198.7726L127.19643503438292,198.7214L128.82509952949692,198.6566L130.50805284111473,198.7232L132.19100615273254,198.7934L133.81967064784655,198.8536L135.50488599348535,198.7946L137.13355048859935,198.79579999999999L138.81650380021716,198.5774L140.49945711183497,198.619L142.01954397394135,198.7228L143.70023525153817,198.8016L145.32889974665218,198.8086L147.01185305827,198.7278L148.640517553384,198.6546L150.3234708650018,198.7116L152.00642417661962,198.7398L153.63508867173363,198.778L155.31804198335143,198.741L156.94896851248643,198.6368L158.63192182410424,198.472L160.31487513572205,198.518L161.88925081433226,198.5152L163.56994209192905,198.6514L165.19860658704306,198.5434L166.88155989866087,198.4406L168.51022439377488,198.3422L170.19317770539269,198.2864L171.8761310170105,198.3202L173.5047955121245,198.263L175.1877488237423,198.1356L176.8186753528773,197.9344L178.50162866449512,197.5312L180.18458197611292,197.426L181.7046688382193,197.37L183.38536011581616,197.5078L185.01402461093016,197.3964L186.69697792254794,197.266L188.32564241766195,197.2342L190.00859572927976,197.2778L191.69154904089757,197.318L193.32021353601158,197.3016L195.0031668476294,197.3582L196.63409337676438,197.261L198.3170466883822,196.975L200,197.0024L200,200L198.3170466883822,200L196.63409337676438,200L195.0031668476294,200L193.32021353601158,200L191.69154904089757,200L190.00859572927976,200L188.32564241766195,200L186.69697792254794,200L185.01402461093016,200L183.38536011581616,200L181.7046688382193,200L180.18458197611292,200L178.50162866449512,200L176.8186753528773,200L175.1877488237423,200L173.5047955121245,200L171.8761310170105,200L170.19317770539269,200L168.51022439377488,200L166.88155989866087,200L165.19860658704306,200L163.56994209192905,200L161.88925081433226,200L160.31487513572205,200L158.63192182410424,200L156.94896851248643,200L155.31804198335143,200L153.63508867173363,200L152.00642417661962,200L150.3234708650018,200L148.640517553384,200L147.01185305827,200L145.32889974665218,200L143.70023525153817,200L142.01954397394135,200L140.49945711183497,200L138.81650380021716,200L137.13355048859935,200L135.50488599348535,200L133.81967064784655,200L132.19100615273254,200L130.50805284111473,200L128.82509952949692,200L127.19643503438292,200L125.5134817227651,200L123.88707926167211,200L122.2041259500543,200L120.6840390879479,200L119.00108577633009,200L117.31813246471228,200L115.68946796959827,200L114.00425262395946,200L112.37558812884545,200L110.69263481722764,200L109.00968150560983,200L107.38101701049582,200L105.69806369887804,200L104.07166123778502,200L102.38870792616721,200L100.8686210640608,200L99.185667752443,200L97.50271444082519,200L95.87404994571118,200L94.18883460007238,200L92.56017010495839,200L90.87721679334058,200L89.19426348172277,200L87.56559898660876,200L85.88264567499095,200L84.25624321389795,200L82.57328990228014,200L80.99891422366993,200L79.31596091205212,200L77.63300760043431,200L76.0043431053203,200L74.3191277596815,200L72.6904632645675,200L71.00750995294969,200L69.32455664133188,200L67.69589214621789,200L66.01293883460008,200L64.38653637350706,200L62.70358306188925,200L61.18349619978285,200L59.50054288816504,200L57.817589576547235,200L56.188925081433226,200L54.50370973579442,200L52.87504524068042,200L51.19209192906261,200L49.50913861744481,200L47.8804741223308,200L46.197520810712994,200L44.57111834961998,200L42.88816503800217,200L41.36807817589577,200L39.68512486427796,200L38.00217155266015,200L36.37350705754614,200L34.68829171190735,200L33.059627216793345,200L31.376673905175533,200L29.693720593557728,200L28.06505609844372,200L26.38210278682591,200L24.7557003257329,200L23.07274701411509,200L21.552660152008688,200L19.86970684039088,200L18.18675352877307,200L16.558089033659066,200L14.872873688020269,200L13.244209192906261,200L11.561255881288455,200L9.878302569670648,200L8.24963807455664,200L6.566684762938834,200L4.94028230184582,200L3.257328990228013,200L1.6829533116178068,200L0,200Z" style="fill: goldenrod;"></path></g><g class="mark-rect role-mark brush_brush" clip-path="url(#clip2)"><path d="M0,0h0v0h0Z" style="fill: none;"></path></g></g></g></g></g></svg>